<svg xmlns="http://www.w3.org/2000/svg" xmlns:xlink="http://www.w3.org/1999/xlink" version="1.1" x="0px" y="0px" viewBox="0 0 91.667 100" enable-background="new 0 0 91.667 100" xml:space="preserve"><path fill="#f8f9fa" d="M85.219,53.104c-1.562-13.474-12.994-23.937-26.886-23.937c-1.42,0-2.805,0.143-4.167,0.354V6.25  c0-3.446-2.803-6.25-6.25-6.25H6.25C2.804,0,0,2.804,0,6.25V50c0,3.446,2.804,6.25,6.25,6.25h25c0,7.675,3.207,14.587,8.333,19.515  V100h33.333v-9.375c6.554,0,11.918-5.042,12.447-11.458h0.053v-6.25h4.167c1.15,0,2.083-0.934,2.083-2.084  C91.667,70.364,85.219,53.104,85.219,53.104z M50,50c0,1.15-0.937,2.083-2.086,2.083h-2.081c-1.151,0-2.083,0.932-2.083,2.084  c0,3.757,2.314,7.316,4.626,9.934c-11.337-2.044-12.922-9.906-12.988-10.275c-0.167-1.006-1.035-1.742-2.055-1.742H6.25  c-1.15,0-2.083-0.933-2.083-2.083V6.25c0-1.15,0.933-2.083,2.083-2.083h41.667C49.067,4.167,50,5.1,50,6.25V50z M76.042,60.417  c-1.725,0-3.125-1.4-3.125-3.125c0-1.726,1.4-3.125,3.125-3.125c1.726,0,3.125,1.399,3.125,3.125  C79.167,59.017,77.767,60.417,76.042,60.417z"></path><rect x="27.083" y="10.417" fill="#f8f9fa" width="18.75" height="4.167"></rect><rect x="27.083" y="25" fill="#f8f9fa" width="18.75" height="4.167"></rect><rect x="27.083" y="39.583" fill="#f8f9fa" width="18.75" height="4.167"></rect><path fill="#f8f9fa" d="M14.581,18.75c-0.312,0-0.632-0.07-0.929-0.22l-4.167-2.083c-1.029-0.515-1.447-1.766-0.932-2.795  c0.517-1.029,1.769-1.444,2.795-0.932l2.612,1.306l5.207-6.942c0.689-0.921,1.995-1.106,2.915-0.416  c0.921,0.689,1.108,1.995,0.417,2.915l-6.25,8.333C15.845,18.457,15.221,18.75,14.581,18.75z"></path><path fill="#f8f9fa" d="M14.581,33.333c-0.312,0-0.632-0.071-0.929-0.22L9.485,31.03c-1.029-0.516-1.447-1.766-0.932-2.795  c0.517-1.029,1.769-1.442,2.795-0.932l2.612,1.306l5.207-6.942c0.689-0.921,1.995-1.105,2.915-0.417  c0.921,0.689,1.108,1.995,0.417,2.915l-6.25,8.333C15.845,33.041,15.221,33.333,14.581,33.333z"></path><path fill="#f8f9fa" d="M18.571,42.708l1.652-1.652c0.814-0.813,0.814-2.132,0-2.946s-2.132-0.814-2.946,0l-1.652,1.652  l-1.652-1.652c-0.814-0.814-2.132-0.814-2.946,0c-0.814,0.814-0.814,2.132,0,2.946l1.652,1.652l-1.652,1.652  c-0.814,0.814-0.814,2.132,0,2.946c0.407,0.407,0.94,0.61,1.473,0.61c0.533,0,1.066-0.203,1.473-0.61l1.652-1.652l1.652,1.652  c0.407,0.407,0.94,0.61,1.473,0.61c0.533,0,1.066-0.203,1.473-0.61c0.814-0.813,0.814-2.132,0-2.946L18.571,42.708z"></path></svg>