<?xml version="1.0" standalone="no"?>
<!DOCTYPE svg PUBLIC "-//W3C//DTD SVG 20010904//EN"
 "http://www.w3.org/TR/2001/REC-SVG-20010904/DTD/svg10.dtd">
<svg version="1.0" xmlns="http://www.w3.org/2000/svg"
 width="800.000000pt" height="800.000000pt" viewBox="0 0 800.000000 800.000000"
 preserveAspectRatio="xMidYMid meet">
<metadata>
Created by potrace 1.11, written by Peter Selinger 2001-2013
</metadata>
<g transform="translate(0.000000,800.000000) scale(0.100000,-0.100000)"
fill="#000000" stroke="none">
<path d="M759 7996 c-2 -3 -16 -7 -29 -9 -67 -13 -167 -63 -207 -104 -12 -13
-25 -23 -28 -23 -11 0 -44 -43 -84 -110 -77 -128 -72 13 -69 -2025 2 -1001 6
-1829 10 -1840 41 -130 109 -229 200 -291 24 -16 46 -33 49 -37 3 -5 8 -8 10
-7 5 2 37 -10 79 -29 31 -14 147 -17 1043 -21 555 -3 1010 -3 1012 0 2 3 24 4
49 2 39 -3 46 -7 45 -25 -2 -61 16 -269 27 -321 3 -12 7 -30 8 -41 37 -217
134 -486 243 -673 24 -41 43 -76 43 -78 0 -3 4 -10 10 -17 5 -7 40 -55 77
-107 72 -102 85 -117 208 -251 l51 -54 -1 -968 0 -967 1332 0 1333 0 0 375 0
375 43 1 c23 0 51 2 62 4 11 2 36 6 55 9 72 12 95 18 150 37 30 11 60 21 65
22 29 7 165 84 213 119 55 41 143 124 193 184 29 34 107 162 128 209 21 47 60
165 55 165 -3 0 0 8 5 18 6 11 13 39 16 63 3 24 8 53 10 64 2 11 4 133 4 270
l1 251 168 0 c199 1 232 6 276 44 58 52 66 118 26 215 -4 11 -45 124 -90 250
-77 216 -127 354 -145 400 -4 11 -9 27 -11 35 -2 8 -7 23 -13 35 -5 11 -28 72
-51 135 -23 63 -45 124 -50 135 -7 16 -84 223 -120 325 -5 14 -12 47 -15 73
-3 27 -9 66 -14 88 -5 21 -7 39 -5 39 3 0 0 8 -5 18 -5 9 -12 33 -15 53 -3 20
-10 49 -16 63 -5 15 -8 31 -5 36 3 5 1 11 -3 14 -5 3 -15 27 -23 53 -17 64
-94 252 -108 266 -6 6 -11 19 -11 28 0 10 -4 21 -10 24 -5 3 -21 29 -35 58
-27 53 -151 244 -170 262 -6 6 -24 28 -40 50 -30 41 -235 250 -290 296 -169
139 -337 241 -569 344 -98 43 -335 112 -446 129 -19 2 -46 7 -60 10 -102 19
-392 26 -505 12 -33 -4 -79 -9 -102 -12 l-43 -5 -3 983 c-1 541 -5 992 -9
1004 -32 105 -127 240 -198 283 -64 38 -134 68 -185 79 -35 8 -567 11 -1781
12 -952 0 -1733 -2 -1735 -4z m3494 -351 c27 -14 44 -33 61 -69 l24 -51 0
-1760 c0 -968 -2 -1778 -5 -1800 -4 -30 -16 -50 -48 -81 -48 -47 -36 -43 -180
-48 -60 -2 -125 -7 -144 -11 -62 -13 -121 -86 -123 -152 -1 -44 14 -156 28
-205 8 -29 16 -60 18 -70 8 -31 69 -163 87 -189 10 -14 16 -28 13 -31 -2 -3 2
-11 11 -18 8 -7 15 -19 15 -26 0 -8 5 -14 10 -14 6 0 10 -7 10 -15 0 -8 5 -15
10 -15 6 0 10 -7 10 -15 0 -8 4 -15 8 -15 4 0 15 -12 24 -27 9 -16 25 -38 35
-50 46 -54 53 -64 53 -72 0 -5 7 -11 15 -15 31 -11 15 -25 -17 -15 -18 5 -51
12 -73 16 -22 3 -51 10 -65 16 -31 13 -35 14 -88 27 -23 6 -50 14 -60 19 -9 5
-61 30 -115 55 -106 51 -161 83 -228 136 -74 59 -185 175 -228 239 -38 56
-110 190 -116 215 -1 6 -4 18 -7 26 -3 8 -13 40 -22 71 -17 61 -51 100 -106
121 -29 11 -231 13 -1140 12 -1171 -1 -1142 -2 -1194 44 -53 48 -50 -60 -52
1857 -1 1011 2 1786 7 1806 12 49 45 88 90 108 35 16 164 17 1741 16 1655 -1
1704 -1 1741 -20z m2267 -4002 c92 -41 142 -118 146 -220 2 -53 -2 -72 -27
-120 -50 -96 -134 -140 -245 -130 -124 12 -215 107 -220 230 -8 186 179 315
346 240z"/>
<path d="M1933 7479 c-22 -11 -50 -32 -61 -47 -140 -184 -372 -495 -372 -499
0 -2 -11 -15 -25 -29 l-25 -24 -97 49 c-154 77 -181 82 -253 53 -75 -30 -116
-146 -76 -218 29 -54 42 -63 237 -161 178 -90 199 -98 249 -97 70 1 98 20 171
117 29 40 71 93 92 120 21 26 35 47 31 47 -4 0 -1 6 8 13 8 6 55 66 104 132
49 66 93 125 97 130 69 84 147 202 152 228 27 142 -106 249 -232 186z"/>
<path d="M2509 7166 c-1 -1 -2 -76 -3 -167 l-1 -166 750 1 750 1 0 165 0 165
-748 1 c-411 0 -748 0 -748 0z"/>
<path d="M1935 6316 c-17 -7 -44 -30 -60 -50 -17 -21 -35 -43 -40 -49 -6 -7
-28 -37 -50 -67 -22 -30 -43 -56 -47 -58 -5 -2 -8 -10 -8 -17 0 -7 -4 -15 -8
-17 -5 -1 -28 -30 -53 -63 -24 -33 -46 -62 -49 -65 -3 -3 -37 -48 -75 -100
-38 -52 -74 -100 -79 -106 -8 -8 -45 6 -133 49 -132 64 -161 70 -229 42 -66
-26 -111 -119 -93 -188 18 -66 51 -91 256 -193 278 -139 293 -137 439 53 49
65 91 122 93 128 2 5 7 12 11 15 3 3 40 50 81 105 41 55 77 102 82 103 4 2 7
10 7 17 0 7 4 15 8 17 12 5 131 164 158 211 81 141 -62 298 -211 233z"/>
<path d="M2605 6002 c-2 -2 -25 -5 -51 -6 l-48 -1 -1 -162 c0 -102 4 -163 10
-164 47 -5 1460 -3 1473 2 15 6 17 25 17 165 0 176 6 161 -67 163 -16 1 -40 1
-55 2 -33 1 -88 0 -123 -4 -14 -1 -37 1 -52 5 -17 4 -28 3 -28 -3 0 -6 -5 -7
-10 -4 -6 4 -34 6 -63 6 -29 0 -74 0 -102 0 -75 1 -186 -1 -220 -4 -16 -1 -42
1 -57 5 -17 4 -28 3 -28 -3 0 -6 -5 -7 -10 -4 -6 4 -34 6 -63 6 -29 0 -74 0
-102 0 -75 1 -186 -1 -220 -4 -16 -1 -42 1 -57 5 -16 3 -28 3 -28 -2 0 -5 -6
-7 -13 -4 -17 6 -97 11 -102 6z"/>
<path d="M1279 4986 c-49 -22 -81 -55 -94 -98 -25 -86 -5 -135 94 -231 34 -32
63 -63 67 -69 3 -5 -20 -35 -53 -66 -90 -87 -112 -122 -117 -178 -5 -73 33
-135 103 -164 77 -31 136 -8 233 91 37 38 71 69 76 69 5 0 36 -27 68 -61 113
-115 185 -137 274 -82 32 20 81 83 64 83 -3 0 -2 6 3 13 13 17 8 78 -10 113
-8 16 -47 61 -86 101 -39 40 -71 74 -71 76 0 3 34 39 76 82 101 103 119 153
83 236 -23 52 -68 85 -125 95 -65 10 -104 -9 -194 -96 l-82 -80 -71 71 c-38
39 -80 77 -93 85 -29 20 -112 25 -145 10z"/>
<path d="M2523 4830 c-16 -5 -18 -19 -18 -168 l0 -162 750 2 750 3 0 164 0
165 -732 0 c-402 1 -740 -1 -750 -4z"/>
</g>
</svg>
